<svg xmlns="http://www.w3.org/2000/svg" viewBox="0 0 512 512">
  <!-- Stem -->
  <path fill="#2E7D32" d="M245,500 C240,400 250,300 256,200 L260,200 C266,300 255,400 250,500 Z"/>
  <!-- Leaves -->
  <path fill="#4CAF50" d="M256,350 Q300,320 320,360 Q300,380 256,360 Z"/>
  <path fill="#4CAF50" d="M250,300 Q200,280 180,320 Q200,340 250,310 Z"/>
  
  <!-- Rose Petals -->
  <!-- Base -->
  <path fill="#D32F2F" d="M200,180 C150,150 350,150 312,180 C350,250 162,250 200,180 Z"/>
  <!-- Middle Layers -->
  <path fill="#C62828" d="M210,170 C180,120 330,120 302,170 C330,220 182,220 210,170 Z"/>
  <path fill="#B71C1C" d="M225,160 C200,100 310,100 287,160 C310,200 202,200 225,160 Z"/>
  <!-- Center swirl -->
  <path fill="#D32F2F" d="M256,150 Q280,130 256,110 Q232,130 256,150 Z"/>
  <path fill="#EF5350" d="M256,140 Q270,130 256,120 Q242,130 256,140 Z"/>
</svg>
