<svg xmlns="http://www.w3.org/2000/svg" viewBox="0 0 512 512">
  <!-- Stem -->
  <path fill="#4CAF50" d="M250,500 QE245,400 250,300 L256,300 QE265,400 262,500 Z"/>
  <!-- Long slender leaves -->
  <path fill="#66BB6A" d="M256,450 Q350,350 300,250 Q280,350 256,400 Z"/>
  <path fill="#66BB6A" d="M250,420 Q150,320 200,220 Q220,320 250,380 Z"/>

  <!-- Tulip Bulb -->
  <!-- Base gradient -->
  <defs>
    <linearGradient id="tulipGrad" x1="0%" y1="100%" x2="0%" y2="0%">
      <stop offset="0%" style="stop-color:#C2185B;stop-opacity:1" />
      <stop offset="100%" style="stop-color:#EC407A;stop-opacity:1" />
    </linearGradient>
  </defs>
  
  <!-- Left Petal -->
  <path fill="url(#tulipGrad)" d="M256,320 Q180,250 180,150 Q180,100 220,80 Q256,200 256,320 Z"/>
  <!-- Right Petal -->
  <path fill="url(#tulipGrad)" d="M256,320 Q332,250 332,150 Q332,100 292,80 Q256,200 256,320 Z"/>
  <!-- Center Petal (Front) -->
  <path fill="#F48FB1" d="M256,320 Q216,200 256,100 Q296,200 256,320 Z"/>
</svg>
